# xmcd
#
# Track frame offsets: 
#        150
#        19250
#        44692
#        67072
#        89415
#        112550
#        134682
#        151302
#        171830
#        192997
#
# Disc length: 2836 seconds
#
# Revision: 2
# Processed by: cddbd v1.5.2PL0 Copyright (c) Steve Scherf et al.
# Submitted via: ExactAudioCopyFreeDBPlugin 1.0
#
DISCID=890b120a
DTITLE=Marlene meets 本田雅人 B.B.STATION - Jazz'n Out
DYEAR=2007
DGENRE=Jazz
TTITLE0=Sing Sing Sing
TTITLE1=It's Magic
TTITLE2=You'll Never Get To Heaven
TTITLE3=Can't Take My Eyes Off Of You
TTITLE4=Cafe Style
TTITLE5=Tennessee Waltz
TTITLE6=Dazzle The Night
TTITLE7=Left Alone
TTITLE8=I Was Born To Love You
TTITLE9=In The Quiet Blue
EXTD=YEAR: 2007
EXTT0=
EXTT1=
EXTT2=
EXTT3=
EXTT4=
EXTT5=
EXTT6=
EXTT7=
EXTT8=
EXTT9=
PLAYORDER=
